<!--?xml version="1.0" encoding="utf-8"?-->
<!-- Generator: Adobe Illustrator 18.1.1, SVG Export Plug-In . SVG Version: 6.00 Build 0)  -->

<svg version="1.1" id="_x31_0" xmlns="http://www.w3.org/2000/svg" xmlns:xlink="http://www.w3.org/1999/xlink" x="0px" y="0px" viewBox="0 0 512 512" style="width: 256px; height: 256px; opacity: 1;" xml:space="preserve">
<style type="text/css">
	.st0{fill:#374149;}
</style>
<g>
	<path class="st0" d="M165.07,395.764c-0.008-0.004-0.016-0.012-0.023-0.016l0.113-0.113c-18.492-12.184-34.566-28.496-46.71-48.5
		c-21.641-35.531-27.817-77.406-18.524-116.637c1.914-8.031,4.434-15.961,7.668-23.688l21.512,18.969l15.187,13.539l-0.011-0.156
		l0.168,0.148l-8.524-135.886l-79.625,4.926l-56.195,3.363l0.121,0.106L0,111.83l39.238,34.644
		C-4.164,223.354-2.84,317.397,43.207,392.947c10.238,16.778,22.187,31.918,35.578,45.309c7.356,7.359,15.141,14.207,23.317,20.438
		l52.699-52.703L165.07,395.764z" style="fill: rgb(58, 171, 210);"></path>
	<path class="st0" d="M225.855,419.694c-0.035-0.008-0.07-0.02-0.109-0.023l0.137-0.137c-16-2.684-31.532-7.786-46.012-15.258
		l-53.782,53.782l-10.316,10.274c0.011,0.004,0.019,0.011,0.027,0.015l-0.118,0.118c12.614,8.406,25.966,15.61,39.821,21.449
		l44.519-44.519L225.855,419.694z" style="fill: rgb(58, 171, 210);"></path>
	<path class="st0" d="M322.726,404.275c-19.93,10.356-41.218,15.918-62.434,17.13l-52.878,52.874l-25.238,25.133
		c0.027,0.008,0.058,0.012,0.086,0.02l-0.133,0.133c13.082,3.89,26.469,6.617,40.054,8.289L323.778,406.26L322.726,404.275z" style="fill: rgb(58, 171, 210);"></path>
	<path class="st0" d="M340.707,438.838l-0.035,0.035l-0.078-0.149l-70.218,70.218c14.246-1.09,28.414-3.426,42.426-7.16
		l39.859-39.859l-9.262-17.813L340.707,438.838z" style="fill: rgb(58, 171, 210);"></path>
	<path class="st0" d="M511.778,400.182L512,400.17l-39.234-34.645c43.402-76.879,42.078-170.918-3.973-246.473
		c-10.234-16.778-22.187-31.918-35.578-45.309c-7.356-7.359-15.141-14.206-23.313-20.437l-52.328,52.324l-10.645,10.602
		c0.008,0.007,0.016,0.015,0.027,0.019l-0.117,0.114c18.492,12.183,34.566,28.492,46.71,48.5
		c21.594,35.449,27.794,77.207,18.594,116.355c-1.918,8.129-4.465,16.153-7.738,23.969l-21.535-18.988l-15.16-13.524l0.007,0.161
		l-0.168-0.149l8.524,135.886l80.258-4.965l55.562-3.324L511.778,400.182z" style="fill: rgb(58, 171, 210);"></path>
	<path class="st0" d="M286.145,92.31c0.038,0.004,0.074,0.016,0.109,0.02l-0.133,0.137c15.996,2.687,31.528,7.785,46.008,15.258
		l53.547-53.547l10.55-10.507c-0.008-0.004-0.019-0.012-0.027-0.016l0.118-0.117c-12.614-8.406-25.966-15.61-39.821-21.446
		L312.004,66.58L286.145,92.31z" style="fill: rgb(58, 171, 210);"></path>
	<path class="st0" d="M189.274,107.725c19.93-10.351,41.222-15.922,62.438-17.125l52.953-52.958l25.16-25.05
		c-0.027-0.012-0.058-0.016-0.086-0.023l0.133-0.133c-13.078-3.891-26.469-6.618-40.054-8.29L188.222,105.74L189.274,107.725z" style="fill: rgb(58, 171, 210);"></path>
	<path class="st0" d="M211.348,33.334l30.293-30.118c-0.066,0.004-0.129,0.012-0.191,0.016l0.179-0.176
		c-14.246,1.09-28.418,3.426-42.43,7.16L159.34,50.076l12.066,23.199L211.348,33.334z" style="fill: rgb(58, 171, 210);"></path>
</g>
</svg>
